<svg width="20" height="20" viewBox="0 0 20 20" fill="none" xmlns="http://www.w3.org/2000/svg">
<path d="M7.23976 10.6894L6.91654 10.3079L6.91653 10.3079L7.23976 10.6894ZM7.28102 10.6499L6.92478 10.2991L6.92439 10.2995L7.28102 10.6499ZM5.54531 12.1251L5.22208 11.7436L5.22208 11.7436L5.54531 12.1251ZM5.45248 12.2229L5.86289 12.5085L5.86289 12.5085L5.45248 12.2229ZM14.4473 10.7494L14.101 11.1101V11.1101L14.4473 10.7494ZM13.0011 9.36106L12.6548 9.72176L12.6548 9.72176L13.0011 9.36106ZM12.4641 9.35729L12.1229 8.99176L12.1216 8.99294L12.4641 9.35729ZM9.78537 11.8749L10.1265 12.2404L10.1278 12.2392L9.78537 11.8749ZM9.24006 11.863L8.88207 12.212L8.88279 12.2128L9.24006 11.863ZM9.23302 11.8557L8.8747 12.2045L8.87504 12.2048L9.23302 11.8557ZM9.19474 11.8186L9.52211 11.4406L9.5221 11.4406L9.19474 11.8186ZM7.8898 10.6883L8.21716 10.3103L8.21716 10.3103L7.8898 10.6883ZM7.85137 10.651L8.20981 10.3024L8.20948 10.302L7.85137 10.651ZM7.84449 10.6439L8.2026 10.295L8.20192 10.2943L7.84449 10.6439ZM7.28843 10.6424L6.9329 10.2908L6.93219 10.2915L7.28843 10.6424ZM13.3746 5.78109V5.28109C13.0985 5.28109 12.8746 5.50495 12.8746 5.78109H13.3746ZM13.6427 5.78109H14.1427C14.1427 5.50495 13.9189 5.28109 13.6427 5.28109V5.78109ZM13.6427 6.00815V6.50815C13.9189 6.50815 14.1427 6.28429 14.1427 6.00815H13.6427ZM13.3746 6.00815H12.8746C12.8746 6.28429 13.0985 6.50815 13.3746 6.50815V6.00815ZM2 5.3125V14.6875H3V5.3125H2ZM5.3125 18H14.6875V17H5.3125V18ZM18 14.6875V5.3125H17V14.6875H18ZM14.6875 2H5.3125V3H14.6875V2ZM18 5.3125C18 3.48306 16.5169 2 14.6875 2V3C15.9647 3 17 4.03534 17 5.3125H18ZM14.6875 18C16.5169 18 18 16.5169 18 14.6875H17C17 15.9647 15.9647 17 14.6875 17V18ZM2 14.6875C2 16.5169 3.48306 18 5.3125 18V17C4.03534 17 3 15.9647 3 14.6875H2ZM3 5.3125C3 4.03534 4.03534 3 5.3125 3V2C3.48306 2 2 3.48306 2 5.3125H3ZM7.56298 11.0709C7.59783 11.0414 7.62699 11.0112 7.63765 11.0003L6.92439 10.2995C6.92088 10.303 6.91854 10.3054 6.91635 10.3076C6.91427 10.3097 6.91302 10.3109 6.91227 10.3117C6.91065 10.3132 6.91243 10.3114 6.91654 10.3079L7.56298 11.0709ZM5.86853 12.5066L7.56299 11.0709L6.91653 10.3079L5.22208 11.7436L5.86853 12.5066ZM5.86289 12.5085C5.85735 12.5164 5.85367 12.5201 5.85446 12.5193C5.85541 12.5183 5.85931 12.5144 5.86853 12.5066L5.22208 11.7436C5.1733 11.785 5.10355 11.8489 5.04208 11.9373L5.86289 12.5085ZM5.8125 12.6691C5.8125 12.6115 5.8302 12.5554 5.86289 12.5085L5.04208 11.9373C4.89312 12.1513 4.8125 12.4066 4.8125 12.6691H5.8125ZM5.8125 14.2969V12.6691H4.8125V14.2969H5.8125ZM5.70313 14.1875C5.76353 14.1875 5.8125 14.2365 5.8125 14.2969H4.8125C4.8125 14.7888 5.21125 15.1875 5.70313 15.1875V14.1875ZM14.2969 14.1875H5.70313V15.1875H14.2969V14.1875ZM14.1875 14.2969C14.1875 14.2365 14.2365 14.1875 14.2969 14.1875V15.1875C14.7888 15.1875 15.1875 14.7888 15.1875 14.2969H14.1875ZM14.1875 11.313V14.2969H15.1875V11.313H14.1875ZM14.101 11.1101C14.1563 11.1631 14.1875 11.2364 14.1875 11.313H15.1875C15.1875 10.9641 15.0452 10.6303 14.7936 10.3887L14.101 11.1101ZM12.6548 9.72176L14.101 11.1101L14.7936 10.3887L13.3474 9.00037L12.6548 9.72176ZM12.8052 9.72281C12.7628 9.76244 12.6967 9.76197 12.6548 9.72176L13.3474 9.00037C13.0062 8.67287 12.4686 8.66909 12.1229 8.99176L12.8052 9.72281ZM10.1278 12.2392L12.8065 9.72163L12.1216 8.99294L9.44294 11.5105L10.1278 12.2392ZM8.88279 12.2128C9.21792 12.555 9.77018 12.573 10.1265 12.2404L9.44421 11.5093C9.48815 11.4683 9.5558 11.4707 9.59732 11.5132L8.88279 12.2128ZM8.87504 12.2048L8.88207 12.212L9.59804 11.5139L9.591 11.5067L8.87504 12.2048ZM8.86738 12.1965C8.86357 12.1932 8.86192 12.1915 8.86343 12.193C8.86413 12.1937 8.8653 12.1948 8.86723 12.1968C8.86926 12.1989 8.87144 12.2011 8.8747 12.2045L9.59134 11.507C9.58145 11.4969 9.55434 11.4686 9.52211 11.4406L8.86738 12.1965ZM7.56245 11.0662L8.86739 12.1965L9.5221 11.4406L8.21716 10.3103L7.56245 11.0662ZM7.49293 10.9995C7.50287 11.0098 7.53008 11.0382 7.56245 11.0662L8.21716 10.3103C8.22098 10.3137 8.22262 10.3154 8.22112 10.3139C8.22042 10.3132 8.21925 10.312 8.21731 10.31C8.21527 10.308 8.21308 10.3057 8.20981 10.3024L7.49293 10.9995ZM7.48639 10.9928L7.49326 10.9999L8.20948 10.302L8.2026 10.295L7.48639 10.9928ZM7.64396 10.9939C7.60033 11.0381 7.53052 11.038 7.48706 10.9935L8.20192 10.2943C7.85438 9.93897 7.28192 9.93785 6.9329 10.2908L7.64396 10.9939ZM7.63726 11.0007L7.64467 10.9932L6.93219 10.2915L6.92478 10.2991L7.63726 11.0007ZM13.3746 6.28109H13.6427V5.28109H13.3746V6.28109ZM13.1427 5.78109V6.00815H14.1427V5.78109H13.1427ZM13.6427 5.50815H13.3746V6.50815H13.6427V5.50815ZM13.8746 6.00815V5.78109H12.8746V6.00815H13.8746Z" fill="white"/>
</svg>
