<svg width="24" height="24" viewBox="0 0 24 24" fill="none" xmlns="http://www.w3.org/2000/svg">
<path d="M12.1746 21.6537V7.69003M10.5496 6.85234C10.7224 6.89114 10.9046 6.84359 11.0291 6.71913C11.1535 6.59467 11.201 6.41244 11.1623 6.23964C11.0071 5.60585 10.4356 3.48361 9.84873 2.89674C9.11757 2.16558 7.92757 2.16254 7.20002 2.89008C6.47253 3.61757 6.47547 4.80757 7.20669 5.53879C7.80316 6.13526 9.91581 6.69721 10.5496 6.85234ZM12.3242 6.23959C12.2854 6.41246 12.3329 6.59462 12.4574 6.71908C12.5818 6.84354 12.7641 6.89101 12.9369 6.85229C13.5706 6.69714 15.6929 6.1256 16.2797 5.53874C17.0109 4.80758 17.014 3.61758 16.2864 2.89003C15.5589 2.16254 14.3689 2.16548 13.6377 2.8967C13.0412 3.49317 12.4793 5.60582 12.3242 6.23959ZM3.09821 12.5773H20.9018C21.2874 12.5773 21.6 12.2647 21.6 11.8791V8.38822C21.6 8.00262 21.2874 7.69003 20.9018 7.69003H3.09821C2.71261 7.69003 2.40002 8.00262 2.40002 8.38821V11.8791C2.40002 12.2647 2.71261 12.5773 3.09821 12.5773ZM19.8546 12.5773V20.9555C19.8546 21.3411 19.542 21.6537 19.1564 21.6537H4.84366C4.45807 21.6537 4.14548 21.3411 4.14548 20.9555V12.5773H19.8546Z" stroke="white" stroke-linecap="round" stroke-linejoin="round"/>
</svg>
